<?xml version="1.0" standalone="no"?>
<!DOCTYPE svg PUBLIC "-//W3C//DTD SVG 20010904//EN"
 "http://www.w3.org/TR/2001/REC-SVG-20010904/DTD/svg10.dtd">
<svg version="1.0" xmlns="http://www.w3.org/2000/svg"
 width="178.000000pt" height="178.000000pt" viewBox="0 0 178.000000 178.000000"
 preserveAspectRatio="xMidYMid meet">
<metadata>
Created by potrace 1.14, written by Peter Selinger 2001-2017
</metadata>
<g transform="translate(0.000000,178.000000) scale(0.100000,-0.100000)"
fill="#000000" stroke="none">
<path d="M712 1751 c-213 -53 -385 -200 -464 -396 -30 -74 -32 -88 -32 -200 0
-105 3 -131 28 -205 83 -249 307 -588 588 -889 l60 -64 67 73 c391 432 611
823 611 1081 0 163 -58 298 -180 419 -87 88 -196 148 -324 180 -101 25 -252
26 -354 1z m287 -236 c90 -22 153 -59 221 -131 76 -82 103 -149 103 -259 0
-114 -28 -182 -107 -260 -89 -89 -180 -114 -293 -80 -117 35 -193 134 -193
252 0 101 45 178 125 214 171 78 343 -102 242 -252 -13 -19 -30 -35 -40 -37
-28 -6 -30 23 -3 63 30 43 33 83 11 126 -33 62 -128 89 -195 54 -67 -35 -111
-137 -91 -212 34 -126 168 -199 300 -163 58 15 142 94 172 163 32 72 32 192 1
260 -45 101 -132 174 -246 209 -225 68 -457 -85 -506 -333 -6 -30 -13 -64 -16
-76 -3 -15 -12 -23 -24 -23 -25 0 -27 40 -5 125 56 220 232 369 440 374 22 0
69 -6 104 -14z"/>
</g>
</svg>
