<svg width="379" height="102" viewBox="0 0 379 102" fill="none" xmlns="http://www.w3.org/2000/svg">
<g id="pbLogoFinal">
<path id="PR&#197;&#174;VODCE" d="M90.8125 36.07C92.5175 36.07 94.0483 35.8317 95.405 35.355C96.7617 34.8783 97.9075 34.2183 98.8425 33.375C99.7958 32.5317 100.52 31.5417 101.015 30.405C101.528 29.25 101.785 27.9942 101.785 26.6375C101.785 23.6492 100.868 21.3483 99.035 19.735C97.2017 18.1217 94.4608 17.315 90.8125 17.315H83.58V36.07H90.8125ZM90.8125 15.0875C95.3775 15.0875 98.815 16.0867 101.125 18.085C103.453 20.0833 104.618 22.9342 104.618 26.6375C104.618 28.3425 104.297 29.91 103.655 31.34C103.013 32.77 102.097 34.0075 100.905 35.0525C99.7133 36.0792 98.265 36.8858 96.56 37.4725C94.855 38.0408 92.9392 38.325 90.8125 38.325H83.58V54H80.7475V15.0875H90.8125ZM123.214 34.31C124.938 34.31 126.478 34.1083 127.834 33.705C129.209 33.2833 130.364 32.6875 131.299 31.9175C132.253 31.1475 132.977 30.2217 133.472 29.14C133.967 28.0583 134.214 26.8392 134.214 25.4825C134.214 22.7142 133.307 20.6608 131.492 19.3225C129.695 17.9842 127.064 17.315 123.599 17.315H116.477V34.31H123.214ZM140.484 54H138.064C137.753 54 137.487 53.9542 137.267 53.8625C137.065 53.7525 136.873 53.56 136.689 53.285L124.204 37.5C124.058 37.2983 123.902 37.1242 123.737 36.9775C123.59 36.8308 123.416 36.7208 123.214 36.6475C123.031 36.5558 122.802 36.4917 122.527 36.455C122.27 36.4183 121.949 36.4 121.564 36.4H116.477V54H113.644V15.0875H123.599C128.073 15.0875 131.419 15.9583 133.637 17.7C135.874 19.4233 136.992 21.9625 136.992 25.3175C136.992 26.8025 136.735 28.1592 136.222 29.3875C135.709 30.6158 134.966 31.6975 133.994 32.6325C133.041 33.5492 131.877 34.3008 130.502 34.8875C129.145 35.4742 127.614 35.8683 125.909 36.07C126.349 36.345 126.744 36.7117 127.092 37.17L140.484 54ZM162.29 51.9925C164.16 51.9925 165.828 51.6717 167.295 51.03C168.78 50.37 170.036 49.4625 171.063 48.3075C172.089 47.1525 172.868 45.7958 173.4 44.2375C173.95 42.6608 174.225 40.965 174.225 39.15V15.0875H177.03V39.15C177.03 41.295 176.691 43.3025 176.013 45.1725C175.334 47.0242 174.353 48.6467 173.07 50.04C171.805 51.415 170.256 52.4967 168.423 53.285C166.608 54.0733 164.563 54.4675 162.29 54.4675C160.017 54.4675 157.963 54.0733 156.13 53.285C154.315 52.4967 152.766 51.415 151.483 50.04C150.218 48.6467 149.246 47.0242 148.568 45.1725C147.889 43.3025 147.55 41.295 147.55 39.15V15.0875H150.383V39.1225C150.383 40.9375 150.648 42.6333 151.18 44.21C151.73 45.7683 152.509 47.125 153.518 48.28C154.544 49.435 155.791 50.3425 157.258 51.0025C158.743 51.6625 160.42 51.9925 162.29 51.9925ZM157.725 7.6625C157.725 7.03916 157.844 6.46166 158.083 5.93C158.339 5.38 158.669 4.9125 159.073 4.5275C159.494 4.1425 159.98 3.84 160.53 3.62C161.08 3.4 161.667 3.29 162.29 3.29C162.913 3.29 163.509 3.4 164.078 3.62C164.646 3.84 165.132 4.1425 165.535 4.5275C165.957 4.9125 166.287 5.38 166.525 5.93C166.782 6.46166 166.91 7.03916 166.91 7.6625C166.91 8.30416 166.782 8.89083 166.525 9.4225C166.287 9.95416 165.957 10.4125 165.535 10.7975C165.132 11.1825 164.646 11.485 164.078 11.705C163.509 11.925 162.913 12.035 162.29 12.035C161.667 12.035 161.08 11.925 160.53 11.705C159.98 11.485 159.494 11.1825 159.073 10.7975C158.669 10.4125 158.339 9.95416 158.083 9.4225C157.844 8.89083 157.725 8.30416 157.725 7.6625ZM159.183 7.6625C159.183 8.57916 159.467 9.33083 160.035 9.9175C160.622 10.5042 161.383 10.7975 162.318 10.7975C163.234 10.7975 163.986 10.5042 164.573 9.9175C165.159 9.33083 165.453 8.57916 165.453 7.6625C165.453 6.74583 165.159 5.99416 164.573 5.4075C163.986 4.82083 163.234 4.5275 162.318 4.5275C161.383 4.5275 160.622 4.82083 160.035 5.4075C159.467 5.99416 159.183 6.74583 159.183 7.6625ZM218.696 15.0875L202.636 54H200.134L184.074 15.0875H186.301C186.558 15.0875 186.769 15.1608 186.934 15.3075C187.099 15.4358 187.227 15.61 187.319 15.83L200.574 48.115C200.72 48.5183 200.867 48.9492 201.014 49.4075C201.16 49.8658 201.298 50.3333 201.426 50.81C201.536 50.3333 201.655 49.8658 201.784 49.4075C201.912 48.9492 202.059 48.5183 202.224 48.115L215.451 15.83C215.524 15.6283 215.653 15.4542 215.836 15.3075C216.019 15.1608 216.239 15.0875 216.496 15.0875H218.696ZM259.954 34.53C259.954 37.5367 259.505 40.2683 258.607 42.725C257.708 45.1633 256.443 47.2533 254.812 48.995C253.18 50.7183 251.218 52.0567 248.927 53.01C246.653 53.945 244.142 54.4125 241.392 54.4125C238.642 54.4125 236.13 53.945 233.857 53.01C231.583 52.0567 229.631 50.7183 227.999 48.995C226.368 47.2533 225.103 45.1633 224.204 42.725C223.306 40.2683 222.857 37.5367 222.857 34.53C222.857 31.5417 223.306 28.8283 224.204 26.39C225.103 23.9333 226.368 21.8433 227.999 20.12C229.631 18.3783 231.583 17.0308 233.857 16.0775C236.13 15.1242 238.642 14.6475 241.392 14.6475C244.142 14.6475 246.653 15.1242 248.927 16.0775C251.218 17.0125 253.18 18.3508 254.812 20.0925C256.443 21.8342 257.708 23.9333 258.607 26.39C259.505 28.8283 259.954 31.5417 259.954 34.53ZM257.039 34.53C257.039 31.8167 256.663 29.3783 255.912 27.215C255.16 25.0517 254.097 23.2183 252.722 21.715C251.347 20.2117 249.697 19.0658 247.772 18.2775C245.847 17.4708 243.72 17.0675 241.392 17.0675C239.082 17.0675 236.964 17.4708 235.039 18.2775C233.114 19.0658 231.455 20.2117 230.062 21.715C228.687 23.2183 227.614 25.0517 226.844 27.215C226.093 29.3783 225.717 31.8167 225.717 34.53C225.717 37.2617 226.093 39.7092 226.844 41.8725C227.614 44.0175 228.687 45.8417 230.062 47.345C231.455 48.8483 233.114 49.9942 235.039 50.7825C236.964 51.5708 239.082 51.965 241.392 51.965C243.72 51.965 245.847 51.5708 247.772 50.7825C249.697 49.9942 251.347 48.8483 252.722 47.345C254.097 45.8417 255.16 44.0175 255.912 41.8725C256.663 39.7092 257.039 37.2617 257.039 34.53ZM302.773 34.53C302.773 37.5367 302.323 40.2408 301.425 42.6425C300.527 45.0442 299.262 47.0883 297.63 48.775C295.998 50.4617 294.037 51.7542 291.745 52.6525C289.472 53.5508 286.96 54 284.21 54H269.993V15.0875H284.21C286.96 15.0875 289.472 15.5367 291.745 16.435C294.037 17.3333 295.998 18.6258 297.63 20.3125C299.262 21.9992 300.527 24.0433 301.425 26.445C302.323 28.8467 302.773 31.5417 302.773 34.53ZM299.858 34.53C299.858 31.8167 299.482 29.3967 298.73 27.27C297.978 25.1433 296.915 23.3467 295.54 21.88C294.165 20.4133 292.515 19.295 290.59 18.525C288.665 17.755 286.538 17.37 284.21 17.37H272.825V51.7175H284.21C286.538 51.7175 288.665 51.3325 290.59 50.5625C292.515 49.7925 294.165 48.6742 295.54 47.2075C296.915 45.7408 297.978 43.9442 298.73 41.8175C299.482 39.6908 299.858 37.2617 299.858 34.53ZM340.957 47.455C341.141 47.455 341.296 47.5192 341.425 47.6475L342.525 48.83C341.718 49.6917 340.838 50.4708 339.885 51.1675C338.95 51.8458 337.914 52.4325 336.777 52.9275C335.659 53.4042 334.421 53.7708 333.065 54.0275C331.726 54.3025 330.251 54.44 328.637 54.44C325.942 54.44 323.467 53.9725 321.212 53.0375C318.976 52.0842 317.051 50.7458 315.437 49.0225C313.824 47.2808 312.568 45.1817 311.67 42.725C310.79 40.2683 310.35 37.5367 310.35 34.53C310.35 31.5783 310.808 28.8833 311.725 26.445C312.641 24.0067 313.925 21.9167 315.575 20.175C317.225 18.415 319.205 17.0583 321.515 16.105C323.825 15.1333 326.373 14.6475 329.16 14.6475C331.818 14.6475 334.174 15.06 336.227 15.885C338.281 16.71 340.151 17.8742 341.837 19.3775L340.985 20.615C340.838 20.835 340.609 20.945 340.297 20.945C340.077 20.945 339.72 20.7433 339.225 20.34C338.73 19.9367 338.042 19.4967 337.162 19.02C336.282 18.525 335.182 18.0758 333.862 17.6725C332.561 17.2692 330.993 17.0675 329.16 17.0675C326.813 17.0675 324.659 17.4708 322.697 18.2775C320.754 19.0842 319.076 20.2392 317.665 21.7425C316.271 23.2458 315.181 25.0792 314.392 27.2425C313.604 29.4058 313.21 31.835 313.21 34.53C313.21 37.28 313.604 39.7367 314.392 41.9C315.199 44.0633 316.299 45.8967 317.692 47.4C319.086 48.885 320.726 50.0308 322.615 50.8375C324.521 51.6258 326.575 52.02 328.775 52.02C330.168 52.02 331.406 51.9283 332.487 51.745C333.587 51.5617 334.596 51.2867 335.512 50.92C336.429 50.5533 337.281 50.1042 338.07 49.5725C338.858 49.0408 339.637 48.4175 340.407 47.7025C340.499 47.6292 340.591 47.5742 340.682 47.5375C340.774 47.4825 340.866 47.455 340.957 47.455ZM374.523 51.6625L374.468 54H351.148V15.0875H374.468V17.425H353.98V33.155H371.03V35.4375H353.98V51.6625H374.523Z" fill="#181E7E"/>
<path id="BROUMOVEM" d="M92.1684 88.9624C93.3178 88.9624 94.2854 88.8314 95.0711 88.5695C95.8714 88.2931 96.5188 87.922 97.0135 87.4564C97.5228 86.9908 97.8865 86.4452 98.1048 85.8196C98.3376 85.1794 98.454 84.4955 98.454 83.768C98.454 82.2839 97.9447 81.1199 96.9262 80.276C95.9223 79.4176 94.3291 78.9883 92.1466 78.9883H85.8391V88.9624H92.1684ZM85.8391 65.566V75.3872H90.9462C93.1287 75.3872 94.7583 74.9653 95.835 74.1214C96.9117 73.2775 97.45 72.0625 97.45 70.4766C97.45 68.7451 96.9408 67.4938 95.9223 66.7227C94.9183 65.9515 93.3397 65.566 91.1863 65.566H85.8391ZM91.1863 61.572C93.1942 61.572 94.9111 61.7684 96.337 62.1613C97.7629 62.5396 98.9341 63.0852 99.8508 63.7981C100.767 64.5111 101.437 65.3841 101.859 66.4171C102.295 67.4356 102.513 68.5851 102.513 69.8655C102.513 70.6075 102.397 71.3278 102.164 72.0262C101.946 72.71 101.597 73.3575 101.117 73.9686C100.651 74.5651 100.062 75.1035 99.3488 75.5836C98.6359 76.0638 97.792 76.4639 96.8171 76.784C101.269 77.7298 103.496 80.0941 103.496 83.8771C103.496 85.2157 103.241 86.4452 102.732 87.5656C102.237 88.6714 101.509 89.6317 100.549 90.4465C99.6034 91.2467 98.4322 91.8724 97.0354 92.3234C95.6386 92.7745 94.0453 93 92.2557 93H80.7321V61.572H91.1863ZM119.245 76.6312C120.409 76.6312 121.428 76.493 122.301 76.2166C123.174 75.9256 123.901 75.5254 124.483 75.0162C125.065 74.5069 125.502 73.9031 125.793 73.2047C126.084 72.4918 126.229 71.7061 126.229 70.8476C126.229 69.1307 125.662 67.8212 124.527 66.9191C123.392 66.017 121.675 65.566 119.376 65.566H115.23V76.6312H119.245ZM134.043 93H129.481C128.579 93 127.924 92.6508 127.517 91.9524L120.184 81.3673C119.936 81.0035 119.667 80.7416 119.376 80.5816C119.085 80.4215 118.649 80.3415 118.067 80.3415H115.23V93H110.123V61.572H119.376C121.442 61.572 123.218 61.783 124.702 62.2049C126.2 62.6269 127.43 63.2307 128.39 64.0164C129.35 64.7875 130.056 65.7187 130.507 66.81C130.973 67.9012 131.205 69.1162 131.205 70.4548C131.205 71.546 131.038 72.5645 130.703 73.5103C130.383 74.456 129.911 75.3145 129.285 76.0856C128.674 76.8568 127.917 77.5261 127.015 78.0935C126.113 78.661 125.087 79.1047 123.938 79.4248C124.563 79.8031 125.102 80.3342 125.553 81.0181L134.043 93ZM167.849 77.286C167.849 79.614 167.47 81.7601 166.714 83.7244C165.957 85.6886 164.888 87.3837 163.505 88.8096C162.138 90.2209 160.486 91.3267 158.551 92.127C156.631 92.9272 154.492 93.3274 152.135 93.3274C149.792 93.3274 147.653 92.9272 145.718 92.127C143.797 91.3267 142.146 90.2209 140.764 88.8096C139.382 87.3837 138.312 85.6886 137.556 83.7244C136.799 81.7601 136.421 79.614 136.421 77.286C136.421 74.958 136.799 72.8119 137.556 70.8476C138.312 68.8834 139.382 67.1883 140.764 65.7624C142.146 64.3365 143.797 63.2234 145.718 62.4232C147.653 61.6229 149.792 61.2228 152.135 61.2228C154.492 61.2228 156.631 61.6229 158.551 62.4232C160.486 63.2234 162.138 64.3365 163.505 65.7624C164.888 67.1883 165.957 68.8834 166.714 70.8476C167.47 72.8119 167.849 74.958 167.849 77.286ZM162.632 77.286C162.632 75.4818 162.385 73.8595 161.89 72.419C161.41 70.9786 160.712 69.7564 159.795 68.7524C158.893 67.7485 157.795 66.9773 156.5 66.439C155.205 65.9006 153.75 65.6314 152.135 65.6314C150.534 65.6314 149.086 65.9006 147.791 66.439C146.496 66.9773 145.391 67.7485 144.474 68.7524C143.557 69.7564 142.852 70.9786 142.357 72.419C141.862 73.8595 141.615 75.4818 141.615 77.286C141.615 79.1047 141.862 80.7343 142.357 82.1748C142.852 83.6152 143.557 84.8374 144.474 85.8414C145.391 86.8308 146.496 87.5947 147.791 88.133C149.086 88.6568 150.534 88.9187 152.135 88.9187C153.75 88.9187 155.205 88.6568 156.5 88.133C157.795 87.5947 158.893 86.8308 159.795 85.8414C160.712 84.8374 161.41 83.6152 161.89 82.1748C162.385 80.7343 162.632 79.1047 162.632 77.286ZM186.714 88.8751C187.921 88.8751 188.998 88.6714 189.944 88.264C190.904 87.8566 191.712 87.2891 192.366 86.5616C193.036 85.8341 193.545 84.9611 193.894 83.9426C194.243 82.9096 194.418 81.7674 194.418 80.5161V61.572H199.503V80.5161C199.503 82.3639 199.205 84.0736 198.608 85.645C198.026 87.2164 197.182 88.5768 196.077 89.7262C194.971 90.8611 193.625 91.756 192.039 92.4107C190.467 93.0509 188.692 93.371 186.714 93.371C184.735 93.371 182.952 93.0509 181.366 92.4107C179.795 91.756 178.456 90.8611 177.351 89.7262C176.245 88.5768 175.394 87.2164 174.797 85.645C174.215 84.0736 173.924 82.3639 173.924 80.5161V61.572H179.031V80.4943C179.031 81.7456 179.206 82.8877 179.555 83.9208C179.904 84.9393 180.406 85.8196 181.061 86.5616C181.716 87.2891 182.516 87.8566 183.462 88.264C184.422 88.6714 185.506 88.8751 186.714 88.8751ZM240.895 61.572V93H236.399V71.4587C236.399 71.1095 236.406 70.7312 236.42 70.3238C236.449 69.9019 236.486 69.4799 236.53 69.058L226.425 87.7183C226.032 88.4895 225.428 88.8751 224.613 88.8751H223.893C223.063 88.8751 222.46 88.4895 222.081 87.7183L211.824 69.0143C211.867 69.4363 211.896 69.8582 211.911 70.2802C211.94 70.7021 211.955 71.095 211.955 71.4587V93H207.459V61.572H211.278C211.729 61.572 212.078 61.6156 212.326 61.7029C212.573 61.7757 212.798 62.0158 213.002 62.4232L223.085 80.6907C223.304 81.1126 223.507 81.5491 223.696 82.0002C223.9 82.4367 224.082 82.8877 224.242 83.3533C224.417 82.8877 224.599 82.4294 224.788 81.9784C224.991 81.5128 225.202 81.069 225.421 80.647L235.351 62.4232C235.555 62.0158 235.78 61.7757 236.028 61.7029C236.275 61.6156 236.624 61.572 237.075 61.572H240.895ZM278.74 77.286C278.74 79.614 278.362 81.7601 277.605 83.7244C276.849 85.6886 275.779 87.3837 274.397 88.8096C273.029 90.2209 271.378 91.3267 269.443 92.127C267.522 92.9272 265.383 93.3274 263.026 93.3274C260.684 93.3274 258.545 92.9272 256.61 92.127C254.689 91.3267 253.038 90.2209 251.655 88.8096C250.273 87.3837 249.204 85.6886 248.447 83.7244C247.69 81.7601 247.312 79.614 247.312 77.286C247.312 74.958 247.69 72.8119 248.447 70.8476C249.204 68.8834 250.273 67.1883 251.655 65.7624C253.038 64.3365 254.689 63.2234 256.61 62.4232C258.545 61.6229 260.684 61.2228 263.026 61.2228C265.383 61.2228 267.522 61.6229 269.443 62.4232C271.378 63.2234 273.029 64.3365 274.397 65.7624C275.779 67.1883 276.849 68.8834 277.605 70.8476C278.362 72.8119 278.74 74.958 278.74 77.286ZM273.524 77.286C273.524 75.4818 273.277 73.8595 272.782 72.419C272.302 70.9786 271.603 69.7564 270.687 68.7524C269.785 67.7485 268.686 66.9773 267.391 66.439C266.096 65.9006 264.641 65.6314 263.026 65.6314C261.426 65.6314 259.978 65.9006 258.683 66.439C257.388 66.9773 256.282 67.7485 255.366 68.7524C254.449 69.7564 253.743 70.9786 253.248 72.419C252.754 73.8595 252.506 75.4818 252.506 77.286C252.506 79.1047 252.754 80.7343 253.248 82.1748C253.743 83.6152 254.449 84.8374 255.366 85.8414C256.282 86.8308 257.388 87.5947 258.683 88.133C259.978 88.6568 261.426 88.9187 263.026 88.9187C264.641 88.9187 266.096 88.6568 267.391 88.133C268.686 87.5947 269.785 86.8308 270.687 85.8414C271.603 84.8374 272.302 83.6152 272.782 82.1748C273.277 80.7343 273.524 79.1047 273.524 77.286ZM310.527 61.572L297.781 93H293.176L280.43 61.572H284.512C284.963 61.572 285.327 61.6884 285.603 61.9212C285.879 62.1394 286.09 62.4159 286.236 62.7505L294.333 83.2442C294.77 84.3937 295.17 85.7177 295.533 87.2164C295.693 86.4743 295.861 85.7686 296.035 85.0993C296.225 84.43 296.428 83.8117 296.646 83.2442L304.722 62.7505C304.838 62.4595 305.042 62.1904 305.333 61.943C305.624 61.6957 305.988 61.572 306.424 61.572H310.527ZM334.688 88.8751L334.667 93H315.068V61.572H334.667V65.6969H320.197V75.169H331.764V79.1629H320.197V88.8751H334.688ZM374.527 61.572V93H370.031V71.4587C370.031 71.1095 370.038 70.7312 370.052 70.3238C370.082 69.9019 370.118 69.4799 370.162 69.058L360.057 87.7183C359.664 88.4895 359.06 88.8751 358.245 88.8751H357.525C356.696 88.8751 356.092 88.4895 355.713 87.7183L345.456 69.0143C345.499 69.4363 345.528 69.8582 345.543 70.2802C345.572 70.7021 345.587 71.095 345.587 71.4587V93H341.091V61.572H344.91C345.361 61.572 345.71 61.6156 345.958 61.7029C346.205 61.7757 346.431 62.0158 346.634 62.4232L356.717 80.6907C356.936 81.1126 357.139 81.5491 357.328 82.0002C357.532 82.4367 357.714 82.8877 357.874 83.3533C358.049 82.8877 358.231 82.4294 358.42 81.9784C358.623 81.5128 358.834 81.069 359.053 80.647L368.983 62.4232C369.187 62.0158 369.412 61.7757 369.66 61.7029C369.907 61.6156 370.256 61.572 370.707 61.572H374.527Z" fill="#181E7E"/>
<g id="Blob">
<path id="Bg" d="M34.035 4.39613C29.5646 4.39325 25.1374 5.19352 21.0067 6.75116C16.8759 8.3088 13.1227 10.5932 9.9616 13.4738C6.80052 16.3544 4.29364 19.7747 2.58434 23.5389C0.875039 27.3031 -0.0031486 31.3375 8.4821e-06 35.4113C8.4821e-06 58.67 34.035 93 34.035 93C34.035 93 68.0581 58.67 68.0581 35.4113C68.0612 31.3385 67.1834 27.305 65.4749 23.5414C63.7663 19.7779 61.2605 16.3582 58.1007 13.4777C54.9409 10.5973 51.1891 8.31258 47.0597 6.7543C42.9304 5.19602 38.5045 4.39469 34.035 4.39613V4.39613Z" fill="#181E7E"/>
<path id="Ulita" d="M12.4612 41.6306C12.9851 34.5479 15.2442 27.6812 20.9996 22.7943C29.9922 15.1603 43.3138 16.4497 50.7556 25.6745C56.7088 33.0548 55.7037 43.9886 48.5099 50.0965C42.7545 54.9822 34.2284 54.1575 29.4659 48.2533C25.6559 43.5299 26.2994 36.5327 30.9032 32.6229C34.5862 29.4964 40.0436 30.0234 43.0916 33.8026C45.5302 36.8254 45.1187 41.3036 42.1721 43.8056C41.8887 44.0471 41.5883 44.2533 41.2757 44.4277" stroke="white" stroke-width="2.5" stroke-miterlimit="10"/>
</g>
</g>
</svg>
