<svg width="1920" height="1080" viewBox="0 0 1920 1080" fill="none" xmlns="http://www.w3.org/2000/svg">
<g clip-path="url(#clip0_1_6)">
<path d="M-450.27 475.459C-256.378 324.63 -47.1438 347.771 215.844 456.695C378.463 524.05 513.142 435.227 747.484 378.513C1070.11 300.432 1333.7 760.043 1582.47 760.043C2015.61 760.043 1985.89 269.058 1960.87 128.33C1922.01 -90.2807 1295.56 -32.6828 1870.18 378.513C2211.05 622.442 2046.87 889.826 2014.04 949.244C1887.38 1116.55 1645.34 1226.87 1379.63 1181.62C1047.5 1125.06 1117.53 820.272 1247.56 826.672C1377.6 833.072 1476.14 1069.64 931.995 1560.63" stroke="white" stroke-opacity="0.5" stroke-width="1.5" stroke-dasharray="4.85 4.85"/>
<path opacity="0.2" d="M-477.661 184.511C-118.031 74.6378 -248.861 514.559 -60.5364 545.402C127.788 576.246 155.755 60.3985 414.521 239.235C673.287 418.071 905.761 440.67 964.489 253.023C1023.22 65.3757 1179.65 -352.145 1433.17 27.6489C1686.69 407.443 1002.95 459.409 1353.1 797.861C1703.24 1136.31 2015 1033.44 1995.4 708.977C1975.8 384.517 1100.25 823.722 1377.86 1156.3C1655.48 1488.88 1843.25 63.6777 2118.23 206.481C2393.2 349.284 2031.47 873.097 2433.94 524.181" stroke="#F3F3F3" stroke-width="2" stroke-dasharray="7.2 7.2"/>
</g>
<defs>
<clipPath id="clip0_1_6">
<rect width="1920" height="1080" fill="white"/>
</clipPath>
</defs>
</svg>
